<svg xmlns="http://www.w3.org/2000/svg" viewBox="0 0 320 260" role="img" aria-labelledby="title">
  <title id="title">Blue lino starfish mark</title>
  <rect width="320" height="260" fill="#f4f1ea"/>
  <g fill="none" stroke="#1a3c8f" stroke-width="8" stroke-linecap="round" stroke-linejoin="round">
    <path d="M157 31c17 34 30 64 37 89 33-13 65-19 97-18-25 27-54 50-87 70 12 31 17 62 14 92-26-17-47-41-63-71-30 17-61 27-95 29 15-31 39-58 71-82-19-30-31-62-36-96 25 15 46 35 62 60 11-28 10-48 0-73z"/>
    <path d="M155 124c-16 12-31 25-44 39"/>
    <path d="M169 130c20-4 39-4 58-1"/>
    <path d="M160 144c5 22 8 43 9 64"/>
    <path d="M149 132c-12-21-21-43-27-66"/>
    <path d="M176 101c4-18 8-36 12-54"/>
    <path d="M145 152c7 4 14 7 21 8"/>
    <path d="M138 111c7 8 16 14 27 19"/>
    <path d="M180 145c-8 8-16 14-25 18"/>
  </g>
</svg>
