<svg xmlns="http://www.w3.org/2000/svg" viewBox="0 0 260 210" role="img" aria-labelledby="title">
  <title id="title">Blue lino coconut shell mark</title>
  <rect width="260" height="210" fill="#f4f1ea"/>
  <g fill="none" stroke="#1a3c8f" stroke-width="7" stroke-linecap="round" stroke-linejoin="round">
    <path d="M43 92c16-42 53-66 111-70 33 1 53 12 61 33"/>
    <path d="M42 92c6 57 36 91 91 101 44-1 71-20 82-57 8-27 8-54 0-81"/>
    <path d="M56 96c33 10 65 13 96 9 25-4 45-12 61-25"/>
    <path d="M70 113c14 19 25 41 33 68"/>
    <path d="M113 111c6 24 9 50 9 78"/>
    <path d="M158 106c-3 28-9 55-19 82"/>
    <path d="M195 88c-6 31-15 60-27 87"/>
    <path d="M64 76c24-14 52-23 85-28"/>
    <path d="M92 57c30-5 59-3 87 5"/>
  </g>
</svg>
