<svg xmlns="http://www.w3.org/2000/svg" viewBox="0 0 320 210" role="img" aria-labelledby="title">
  <title id="title">Blue lino shell mark</title>
  <rect width="320" height="210" fill="#f4f1ea"/>
  <g fill="none" stroke="#1a3c8f" stroke-width="7" stroke-linecap="round" stroke-linejoin="round">
    <path d="M70 159c21-69 57-107 105-112 45 0 78 35 86 97"/>
    <path d="M70 159c42 19 91 25 147 18 26-4 42-15 44-33"/>
    <path d="M93 153c16-43 38-74 66-94"/>
    <path d="M128 166c9-48 20-84 33-108"/>
    <path d="M166 173c-1-49 2-86 8-112"/>
    <path d="M203 170c-11-43-19-78-24-105"/>
    <path d="M233 156c-18-35-34-63-49-84"/>
    <path d="M96 166c-13 2-24 1-34-5"/>
    <path d="M211 177c17 4 35 1 54-8"/>
    <path d="M74 158c23-12 45-18 66-18"/>
    <path d="M142 140c31 4 68 5 112 2"/>
  </g>
</svg>
